<svg width="18" height="28" viewBox="0 0 18 28" fill="none" xmlns="http://www.w3.org/2000/svg">
<path d="M1.45349 15.8933L12.7602 27.2C13.0081 27.4499 13.303 27.6483 13.6279 27.7837C13.9529 27.9191 14.3015 27.9888 14.6535 27.9888C15.0055 27.9888 15.3541 27.9191 15.679 27.7837C16.004 27.6483 16.2989 27.4499 16.5468 27.2C17.0435 26.7003 17.3223 26.0245 17.3223 25.32C17.3223 24.6155 17.0435 23.9396 16.5468 23.44L7.10682 14L16.5468 4.55998C17.0435 4.06034 17.3223 3.38447 17.3223 2.67997C17.3223 1.97548 17.0435 1.29961 16.5468 0.799974C16.2976 0.552824 16.0021 0.357291 15.6772 0.224585C15.3523 0.0918798 15.0044 0.0246143 14.6535 0.0266433C14.3025 0.0246142 13.9546 0.0918797 13.6297 0.224585C13.3048 0.357291 13.0093 0.552823 12.7602 0.799974L1.45349 12.1066C1.20355 12.3545 1.00516 12.6495 0.869779 12.9744C0.734396 13.2994 0.664693 13.6479 0.664693 14C0.664693 14.352 0.734395 14.7006 0.869779 15.0255C1.00516 15.3505 1.20355 15.6454 1.45349 15.8933V15.8933Z" fill="black" fill-opacity="0.3"/>
</svg>
