<svg width="18" height="28" viewBox="0 0 18 28" fill="none" xmlns="http://www.w3.org/2000/svg">
<path d="M16.5465 12.1067L5.23985 0.800026C4.99195 0.550083 4.69701 0.351698 4.37205 0.216315C4.04709 0.0809318 3.69855 0.0112305 3.34651 0.0112305C2.99448 0.0112305 2.64593 0.0809318 2.32098 0.216315C1.99602 0.351698 1.70108 0.550083 1.45318 0.800026C0.956512 1.29966 0.677734 1.97553 0.677734 2.68003C0.677734 3.38452 0.956512 4.06039 1.45318 4.56003L10.8932 14L1.45318 23.44C0.956512 23.9397 0.677734 24.6155 0.677734 25.32C0.677734 26.0245 0.956512 26.7004 1.45318 27.2C1.70235 27.4472 1.99786 27.6427 2.32276 27.7754C2.64766 27.9081 2.99556 27.9754 3.34651 27.9734C3.69747 27.9754 4.04536 27.9081 4.37026 27.7754C4.69516 27.6427 4.99067 27.4472 5.23985 27.2L16.5465 15.8934C16.7965 15.6455 16.9948 15.3505 17.1302 15.0256C17.2656 14.7006 17.3353 14.3521 17.3353 14C17.3353 13.648 17.2656 13.2994 17.1302 12.9745C16.9948 12.6495 16.7965 12.3546 16.5465 12.1067V12.1067Z" fill="black" fill-opacity="0.6"/>
</svg>
