<svg width="14" height="18" viewBox="0 0 14 18" fill="none" xmlns="http://www.w3.org/2000/svg">
<path d="M12.8334 4.83333H10.3334V4C10.3334 3.11595 9.98218 2.2681 9.35706 1.64298C8.73194 1.01786 7.8841 0.666668 7.00004 0.666668C6.11598 0.666668 5.26814 1.01786 4.64302 1.64298C4.0179 2.2681 3.66671 3.11595 3.66671 4V4.83333H1.16671C0.945694 4.83333 0.733732 4.92113 0.577452 5.07741C0.421172 5.23369 0.333374 5.44565 0.333374 5.66667V14.8333C0.333374 15.4964 0.596766 16.1323 1.06561 16.6011C1.53445 17.0699 2.17033 17.3333 2.83337 17.3333H11.1667C11.8297 17.3333 12.4656 17.0699 12.9345 16.6011C13.4033 16.1323 13.6667 15.4964 13.6667 14.8333V5.66667C13.6667 5.44565 13.5789 5.23369 13.4226 5.07741C13.2663 4.92113 13.0544 4.83333 12.8334 4.83333ZM5.33337 4C5.33337 3.55797 5.50897 3.13405 5.82153 2.82149C6.13409 2.50893 6.55801 2.33333 7.00004 2.33333C7.44207 2.33333 7.86599 2.50893 8.17855 2.82149C8.49111 3.13405 8.66671 3.55797 8.66671 4V4.83333H5.33337V4ZM12 14.8333C12 15.0543 11.9122 15.2663 11.756 15.4226C11.5997 15.5789 11.3877 15.6667 11.1667 15.6667H2.83337C2.61236 15.6667 2.4004 15.5789 2.24412 15.4226C2.08784 15.2663 2.00004 15.0543 2.00004 14.8333V6.5H3.66671V7.33333C3.66671 7.55435 3.7545 7.76631 3.91078 7.92259C4.06707 8.07887 4.27903 8.16667 4.50004 8.16667C4.72105 8.16667 4.93302 8.07887 5.0893 7.92259C5.24558 7.76631 5.33337 7.55435 5.33337 7.33333V6.5H8.66671V7.33333C8.66671 7.55435 8.7545 7.76631 8.91078 7.92259C9.06706 8.07887 9.27903 8.16667 9.50004 8.16667C9.72105 8.16667 9.93301 8.07887 10.0893 7.92259C10.2456 7.76631 10.3334 7.55435 10.3334 7.33333V6.5H12V14.8333Z" fill="white"/>
</svg>
