<svg width="18" height="18" viewBox="0 0 18 18" fill="none" xmlns="http://www.w3.org/2000/svg">
<path fill-rule="evenodd" clip-rule="evenodd" d="M17.3333 8.99984C17.3333 4.39817 13.6016 0.666504 8.99996 0.666504C4.39829 0.666504 0.666626 4.39817 0.666626 8.99984C0.666626 13.6015 4.39829 17.3332 8.99996 17.3332C9.04891 17.3332 9.09762 17.3322 9.14644 17.3313V10.8441H7.35608V8.7576H9.14644V7.22219C9.14644 5.44149 10.2335 4.4723 11.8219 4.4723C12.5826 4.4723 13.2364 4.52901 13.427 4.55432V6.41538H12.3317C11.4676 6.41538 11.3002 6.8261 11.3002 7.42869V8.7576H13.3665L13.0972 10.8441H11.3002V17.0112C14.7834 16.0127 17.3333 12.8036 17.3333 8.99984Z" fill="white"/>
</svg>
