<svg width="18" height="18" viewBox="0 0 18 18" fill="none" xmlns="http://www.w3.org/2000/svg">
<path fill-rule="evenodd" clip-rule="evenodd" d="M10.0733 0.666608C11.3923 0.6702 11.7151 0.683093 12.4422 0.717603C13.328 0.75665 13.9338 0.899864 14.4645 1.10502C15.0181 1.31335 15.5229 1.64226 15.9398 2.06554C16.3665 2.48234 16.6921 2.98371 16.9038 3.54372C17.109 4.0713 17.2523 4.68015 17.2913 5.56576C17.3248 6.32768 17.332 6.64463 17.3334 8.14469L17.3335 9.4564C17.3321 11.3073 17.3211 11.6105 17.2848 12.4359C17.2458 13.3216 17.1024 13.9272 16.8973 14.458C16.4642 15.578 15.5784 16.4636 14.458 16.8967C13.9305 17.1018 13.3215 17.245 12.4357 17.2841C11.5466 17.3233 11.2633 17.3329 8.99994 17.3329L8.76489 17.3329C6.71554 17.3322 6.42138 17.3219 5.56416 17.2841C4.67825 17.245 4.07259 17.1018 3.54172 16.8967C2.98809 16.6883 2.48331 16.3594 2.06643 15.9362C1.64306 15.5194 1.31422 15.018 1.10254 14.458C0.89734 13.9304 0.753971 13.3216 0.714916 12.4359C0.682836 11.7058 0.670498 11.3843 0.667114 10.0385L0.667219 7.9309C0.670811 6.61213 0.683707 6.28945 0.718224 5.56245C0.757278 4.67684 0.90052 4.0713 1.10572 3.54054C1.31422 2.98702 1.64306 2.48234 2.06643 2.06554C2.48331 1.63895 2.98478 1.31335 3.54503 1.10171C4.07258 0.896684 4.68156 0.753343 5.56734 0.714296C6.29767 0.682222 6.61924 0.669887 7.96529 0.666504L10.0733 0.666608ZM9.87873 2.18021H8.14178C6.69373 2.18305 6.3913 2.19508 5.64227 2.22834C4.83141 2.26421 4.38846 2.40094 4.09536 2.5149C3.73382 2.64832 3.40815 2.85996 3.13795 3.13672C2.85783 3.40381 2.64614 3.73259 2.51257 4.09406C2.39858 4.3871 2.26183 4.82667 2.22608 5.64067C2.1898 6.45161 2.17883 6.74056 2.1774 8.54431V9.47031C2.17883 11.2737 2.1898 11.5601 2.22608 12.3741C2.26183 13.1848 2.39858 13.6277 2.51257 13.9207C2.64614 14.2821 2.85782 14.6077 3.13464 14.878C3.40166 15.1547 3.73064 15.3664 4.09205 15.4999C4.38515 15.6139 4.8248 15.7506 5.63896 15.7863C6.38529 15.8197 6.68962 15.8317 8.13837 15.8345H9.8743C11.3224 15.8317 11.6247 15.8197 12.3738 15.7863C13.1847 15.7506 13.6276 15.6139 13.9207 15.4999C14.6469 15.2198 15.2233 14.6435 15.5035 13.9174C15.6175 13.6244 15.7542 13.1848 15.7901 12.3708C15.8248 11.5894 15.8364 11.2967 15.8385 9.67945V8.33511C15.8364 6.71726 15.8248 6.42211 15.7901 5.64067C15.7542 4.82985 15.6175 4.3871 15.5035 4.09406C15.3699 3.73259 15.1582 3.40699 14.8814 3.13672C14.6144 2.85996 14.2854 2.64832 13.924 2.5149C13.6309 2.40094 13.1912 2.26421 12.3771 2.22834C11.6307 2.19508 11.3288 2.18305 9.87873 2.18021ZM9.00312 4.71919C11.3675 4.71919 13.2856 6.63693 13.2856 9.00085C13.2856 11.3648 11.3675 13.2825 9.00312 13.2825C6.63886 13.2825 4.72061 11.3648 4.72061 9.00085C4.72061 6.63693 6.63886 4.71919 9.00312 4.71919ZM9.00312 6.22344C7.46931 6.22344 6.22516 7.46722 6.22516 9.00085C6.22516 10.5345 7.46931 11.7783 9.00312 11.7783C10.5371 11.7783 11.7811 10.5345 11.7811 9.00085C11.7811 7.46722 10.5371 6.22344 9.00312 6.22344ZM13.455 3.55033C14.0072 3.55033 14.4548 3.99778 14.4548 4.5499C14.4548 5.1019 14.0072 5.54948 13.455 5.54948C12.9028 5.54948 12.4552 5.1019 12.4552 4.5499C12.4552 3.99778 12.9028 3.55033 13.455 3.55033Z" fill="white"/>
</svg>
