<svg width="18" height="14" viewBox="0 0 18 14" fill="none" xmlns="http://www.w3.org/2000/svg">
<path fill-rule="evenodd" clip-rule="evenodd" d="M17.3333 1.91196C16.7135 2.17965 16.0531 2.35709 15.3645 2.44324C16.0729 2.02683 16.6135 1.37247 16.8677 0.583753C16.2073 0.971445 15.4781 1.24529 14.701 1.39811C14.0739 0.740675 13.1802 0.333496 12.2052 0.333496C10.3135 0.333496 8.79058 1.84529 8.79058 3.69862C8.79058 3.96529 8.8135 4.2217 8.86975 4.4658C6.02913 4.32939 3.51558 2.98888 1.82704 0.946829C1.53225 1.45042 1.35933 2.02683 1.35933 2.64734C1.35933 3.81247 1.96871 4.84529 2.87704 5.44324C2.32808 5.43298 1.78954 5.27606 1.33329 5.02888C1.33329 5.03914 1.33329 5.05247 1.33329 5.0658C1.33329 6.70068 2.51767 8.05862 4.07079 8.37144C3.79267 8.44632 3.48954 8.48221 3.17496 8.48221C2.95621 8.48221 2.73538 8.46991 2.52808 8.42478C2.97079 9.75708 4.22704 10.7366 5.72079 10.7684C4.55829 11.6638 3.08225 12.2032 1.48433 12.2032C1.20413 12.2032 0.935376 12.1909 0.666626 12.1571C2.18017 13.1181 3.97392 13.6668 5.90829 13.6668C12.1958 13.6668 15.6333 8.53862 15.6333 4.0935C15.6333 3.94478 15.6281 3.80119 15.6208 3.65862C16.2989 3.18478 16.8687 2.59298 17.3333 1.91196Z" fill="white"/>
</svg>
