<svg width="18" height="18" viewBox="0 0 18 18" fill="none" xmlns="http://www.w3.org/2000/svg">
<path d="M11.5817 9.52841L9.83333 8.51925V4.83342C9.83333 4.6124 9.74554 4.40044 9.58926 4.24416C9.43298 4.08788 9.22101 4.00008 9 4.00008C8.77899 4.00008 8.56703 4.08788 8.41075 4.24416C8.25447 4.40044 8.16667 4.6124 8.16667 4.83342V9.00008C8.16667 9.14636 8.20518 9.29006 8.27832 9.41674C8.35146 9.54342 8.45666 9.64861 8.58333 9.72175L10.7483 10.9717C10.8431 11.0273 10.948 11.0636 11.0569 11.0785C11.1658 11.0934 11.2765 11.0866 11.3828 11.0585C11.489 11.0304 11.5887 10.9816 11.676 10.9148C11.7633 10.8481 11.8365 10.7647 11.8915 10.6695C11.9464 10.5743 11.982 10.4692 11.9962 10.3603C12.0103 10.2513 12.0028 10.1406 11.974 10.0345C11.9452 9.92844 11.8957 9.82913 11.8284 9.74227C11.7611 9.65541 11.6772 9.58273 11.5817 9.52841ZM9 0.666748C7.35182 0.666748 5.74066 1.15549 4.37025 2.07117C2.99984 2.98685 1.93174 4.28834 1.30101 5.81105C0.670275 7.33377 0.505247 9.00933 0.826791 10.6258C1.14833 12.2423 1.94201 13.7272 3.10744 14.8926C4.27288 16.0581 5.75774 16.8517 7.37425 17.1733C8.99076 17.4948 10.6663 17.3298 12.189 16.6991C13.7117 16.0683 15.0132 15.0002 15.9289 13.6298C16.8446 12.2594 17.3333 10.6483 17.3333 9.00008C17.3309 6.79069 16.4522 4.67248 14.8899 3.1102C13.3276 1.54793 11.2094 0.669174 9 0.666748ZM9 15.6667C7.68146 15.6667 6.39253 15.2758 5.2962 14.5432C4.19987 13.8107 3.34539 12.7695 2.8408 11.5513C2.33622 10.3331 2.2042 8.99269 2.46143 7.69948C2.71867 6.40627 3.35361 5.21839 4.28596 4.28604C5.21831 3.35369 6.40619 2.71875 7.6994 2.46151C8.99261 2.20428 10.333 2.3363 11.5512 2.84088C12.7694 3.34547 13.8106 4.19995 14.5431 5.29628C15.2757 6.39261 15.6667 7.68154 15.6667 9.00008C15.6645 10.7675 14.9614 12.4619 13.7116 13.7117C12.4618 14.9615 10.7674 15.6645 9 15.6667Z" fill="black" fill-opacity="0.3"/>
</svg>
