<svg width="47" height="28" viewBox="0 0 47 28" fill="none" xmlns="http://www.w3.org/2000/svg">
<path fill-rule="evenodd" clip-rule="evenodd" d="M23.3686 24.3601C20.9308 26.3978 17.7686 27.6279 14.3133 27.6279C6.60324 27.6279 0.353027 21.5035 0.353027 13.9487C0.353027 6.3939 6.60324 0.269531 14.3133 0.269531C17.7686 0.269531 20.9308 1.49963 23.3686 3.5373C25.8063 1.49963 28.9685 0.269531 32.4239 0.269531C40.1339 0.269531 46.3841 6.3939 46.3841 13.9487C46.3841 21.5035 40.1339 27.6279 32.4239 27.6279C28.9685 27.6279 25.8063 26.3978 23.3686 24.3601Z" fill="#ED0006"/>
<path fill-rule="evenodd" clip-rule="evenodd" d="M23.3687 24.3601C26.3703 21.8511 28.2736 18.1177 28.2736 13.9487C28.2736 9.7797 26.3703 6.0463 23.3687 3.53729C25.8064 1.49962 28.9686 0.269531 32.4239 0.269531C40.134 0.269531 46.3842 6.3939 46.3842 13.9487C46.3842 21.5035 40.134 27.6279 32.4239 27.6279C28.9686 27.6279 25.8064 26.3978 23.3687 24.3601Z" fill="#F9A000"/>
<path fill-rule="evenodd" clip-rule="evenodd" d="M23.3688 24.36C26.3704 21.851 28.2736 18.1177 28.2736 13.9487C28.2736 9.77974 26.3704 6.04636 23.3688 3.53735C20.3672 6.04636 18.4639 9.77974 18.4639 13.9487C18.4639 18.1177 20.3672 21.851 23.3688 24.36Z" fill="#FF5E00"/>
</svg>
