<svg width="23" height="28" viewBox="0 0 23 28" fill="none" xmlns="http://www.w3.org/2000/svg">
<path fill-rule="evenodd" clip-rule="evenodd" d="M7.08767 26.6652L7.5421 23.7066L6.52979 23.6824H1.6958L5.05525 1.84959C5.06572 1.78348 5.09955 1.72211 5.14896 1.67845C5.19861 1.63479 5.2619 1.61084 5.3281 1.61084H13.4789C16.1851 1.61084 18.0525 2.18789 19.0273 3.32702C19.4844 3.86141 19.7755 4.41999 19.9165 5.03447C20.0642 5.67937 20.0666 6.44977 19.9226 7.38956L19.9121 7.45792V8.06017L20.3692 8.32562C20.754 8.53493 21.06 8.77443 21.2946 9.04861C21.6855 9.50566 21.9384 10.0865 22.0453 10.7748C22.1558 11.4828 22.1193 12.3255 21.9384 13.2796C21.7298 14.3768 21.3927 15.3325 20.9373 16.1144C20.5186 16.8349 19.9851 17.4327 19.3515 17.8957C18.7467 18.3358 18.0281 18.6698 17.2157 18.8836C16.4283 19.0937 15.5306 19.1997 14.546 19.1997H13.9117C13.4583 19.1997 13.0177 19.3671 12.6718 19.6673C12.325 19.9736 12.0957 20.3923 12.0253 20.8501L11.9774 21.1165L11.1744 26.3314L11.1381 26.5227C11.1284 26.5834 11.1118 26.6136 11.0875 26.634C11.0658 26.6527 11.0347 26.6652 11.0043 26.6652H7.08767Z" fill="#28356A"/>
<path fill-rule="evenodd" clip-rule="evenodd" d="M20.8028 7.52747C20.7787 7.68688 20.7507 7.84979 20.7195 8.0172C19.6446 13.6739 15.9671 15.6281 11.2704 15.6281H8.87892C8.30449 15.6281 7.82036 16.0555 7.73103 16.6363L6.15986 26.8512C6.10169 27.2327 6.38842 27.5762 6.76375 27.5762H11.0053C11.5074 27.5762 11.9341 27.2023 12.0132 26.6946L12.0548 26.4738L12.8535 21.2793L12.9048 20.9944C12.9829 20.485 13.4106 20.1108 13.9127 20.1108H14.5471C18.6564 20.1108 21.8735 18.4008 22.8138 13.4521C23.2064 11.3849 23.0031 9.65878 21.9638 8.44481C21.6493 8.07882 21.2591 7.77495 20.8028 7.52747Z" fill="#298FC2"/>
<path fill-rule="evenodd" clip-rule="evenodd" d="M19.6774 7.06791C19.5131 7.01876 19.3437 6.97436 19.1699 6.93419C18.9952 6.89502 18.8163 6.86034 18.632 6.82991C17.9872 6.72313 17.2806 6.67249 16.5239 6.67249H10.1353C9.97781 6.67249 9.82836 6.70891 9.69473 6.77477C9.39997 6.91997 9.18115 7.20587 9.12809 7.5559L7.76892 16.379L7.72998 16.6362C7.81931 16.0555 8.30344 15.6281 8.87787 15.6281H11.2693C15.966 15.6281 19.6436 13.6729 20.7185 8.01719C20.7506 7.84978 20.7776 7.68687 20.8017 7.52746C20.5298 7.37951 20.2353 7.25303 19.9182 7.14525C19.8398 7.11856 19.759 7.09286 19.6774 7.06791Z" fill="#22284F"/>
<path fill-rule="evenodd" clip-rule="evenodd" d="M9.12867 7.55596C9.18173 7.20594 9.40055 6.92003 9.69531 6.77583C9.82991 6.70972 9.97839 6.6733 10.1359 6.6733H16.5245C17.2812 6.6733 17.9878 6.72419 18.6326 6.83097C18.8168 6.86116 18.9957 6.89608 19.1705 6.93525C19.3443 6.97517 19.5137 7.01982 19.678 7.06872C19.7595 7.09367 19.8404 7.11962 19.9195 7.14531C20.2366 7.25309 20.5314 7.38057 20.8033 7.52752C21.1231 5.43712 20.8006 4.01383 19.698 2.72501C18.4822 1.30597 16.2881 0.69873 13.4805 0.69873H5.32939C4.75593 0.69873 4.26669 1.12609 4.17809 1.70788L0.783103 23.7652C0.716167 24.2016 1.04452 24.5952 1.47388 24.5952H6.506L9.12867 7.55596Z" fill="#28356A"/>
</svg>
