<svg width="50" height="17" viewBox="0 0 50 17" fill="none" xmlns="http://www.w3.org/2000/svg">
<path fill-rule="evenodd" clip-rule="evenodd" d="M13.1328 16.3772H8.8922L5.71223 3.99274C5.5613 3.42305 5.24082 2.91942 4.76941 2.68205C3.59295 2.08553 2.29656 1.61079 0.882324 1.37136V0.894554H7.71367C8.65649 0.894554 9.36361 1.61079 9.48146 2.44262L11.1314 11.376L15.37 0.894554H19.4928L13.1328 16.3772ZM21.8498 16.3772H17.8449L21.1427 0.894554H25.1477L21.8498 16.3772ZM30.3291 5.18372C30.4469 4.34984 31.154 3.87303 31.979 3.87303C33.2754 3.75332 34.6876 3.99275 35.8661 4.5872L36.5732 1.25371C35.3947 0.776909 34.0983 0.537476 32.9218 0.537476C29.0347 0.537476 26.2063 2.68206 26.2063 5.65846C26.2063 7.92276 28.2098 9.11167 29.624 9.82791C31.154 10.5421 31.7433 11.0189 31.6254 11.7331C31.6254 12.8043 30.4469 13.2811 29.2705 13.2811C27.8562 13.2811 26.442 12.924 25.1477 12.3275L24.4405 15.6631C25.8548 16.2575 27.3848 16.497 28.799 16.497C33.1575 16.6146 35.8661 14.4721 35.8661 11.2563C35.8661 7.20653 30.3291 6.96916 30.3291 5.18372ZM49.8823 16.3772L46.7024 0.894554H43.2867C42.5796 0.894554 41.8724 1.37136 41.6367 2.08553L35.7482 16.3772H39.871L40.6939 14.115H45.7595L46.2309 16.3772H49.8823ZM43.876 5.06402L45.0524 10.8992H41.7546L43.876 5.06402Z" fill="#172B85"/>
</svg>
